<svg width="433" height="376" viewBox="0 0 433 376" fill="none" xmlns="http://www.w3.org/2000/svg">
<rect x="23.4637" y="47.5771" width="513.594" height="325.207" rx="7.5" transform="rotate(-3.12748 23.4637 47.5771)" stroke="black" stroke-width="5"/>
<line x1="34.8424" y1="107.664" x2="531.528" y2="80.5253" stroke="black" stroke-width="5"/>
<path d="M109.615 181.038C109.538 179.624 109.753 178.377 110.262 177.298C110.769 176.202 111.507 175.335 112.473 174.698C113.457 174.06 114.597 173.706 115.895 173.635C117.576 173.543 118.98 173.875 120.106 174.631C121.249 175.387 122.035 176.479 122.463 177.908L120.017 178.041C119.739 177.222 119.245 176.59 118.536 176.144C117.844 175.698 116.999 175.502 116 175.557C114.702 175.628 113.678 176.134 112.929 177.077C112.178 178.002 111.847 179.281 111.937 180.912C112.027 182.559 112.495 183.81 113.343 184.665C114.191 185.52 115.264 185.912 116.562 185.841C117.561 185.787 118.38 185.508 119.02 185.006C119.661 184.504 120.082 183.813 120.284 182.934L122.731 182.8C122.441 184.218 121.77 185.382 120.718 186.29C119.665 187.183 118.315 187.674 116.667 187.764C115.369 187.835 114.197 187.607 113.15 187.08C112.119 186.552 111.292 185.771 110.668 184.736C110.044 183.702 109.693 182.47 109.615 181.038ZM131.98 186.927C130.699 186.997 129.518 186.769 128.438 186.244C127.374 185.718 126.513 184.939 125.856 183.907C125.215 182.857 124.855 181.624 124.778 180.21C124.702 178.812 124.934 177.564 125.475 176.466C126.031 175.351 126.818 174.482 127.836 173.859C128.853 173.219 130.01 172.863 131.308 172.793C132.606 172.722 133.795 172.949 134.875 173.474C135.955 173.982 136.823 174.753 137.48 175.785C138.154 176.817 138.53 178.04 138.607 179.454C138.685 180.869 138.437 182.134 137.863 183.25C137.306 184.349 136.51 185.219 135.477 185.86C134.444 186.5 133.278 186.856 131.98 186.927ZM131.871 184.93C132.686 184.885 133.441 184.652 134.136 184.23C134.831 183.808 135.374 183.203 135.765 182.414C136.172 181.624 136.346 180.679 136.286 179.581C136.226 178.483 135.958 177.563 135.484 176.821C135.009 176.079 134.413 175.544 133.694 175.216C132.974 174.871 132.206 174.721 131.391 174.766C130.559 174.811 129.804 175.045 129.126 175.466C128.463 175.869 127.945 176.465 127.571 177.253C127.197 178.041 127.039 178.985 127.099 180.083C127.16 181.198 127.411 182.127 127.853 182.871C128.311 183.614 128.891 184.158 129.594 184.503C130.297 184.832 131.056 184.974 131.871 184.93ZM147.873 171.862C149.537 171.771 150.913 172.205 152 173.164C153.087 174.106 153.682 175.526 153.785 177.423L154.226 185.486L151.979 185.609L151.556 177.87C151.482 176.506 151.084 175.484 150.362 174.806C149.64 174.111 148.688 173.796 147.507 173.86C146.308 173.926 145.372 174.353 144.697 175.141C144.039 175.928 143.749 177.037 143.827 178.468L144.241 186.032L141.969 186.156L141.222 172.476L143.493 172.352L143.6 174.299C144.011 173.576 144.589 173.002 145.333 172.577C146.095 172.152 146.941 171.913 147.873 171.862ZM162.792 185.243C161.743 185.301 160.793 185.177 159.942 184.873C159.09 184.553 158.405 184.089 157.888 183.483C157.37 182.861 157.063 182.135 156.968 181.305L159.315 181.177C159.418 181.856 159.765 182.396 160.354 182.798C160.961 183.199 161.73 183.374 162.662 183.323C163.527 183.275 164.199 183.047 164.677 182.637C165.155 182.227 165.379 181.73 165.347 181.148C165.314 180.549 165.024 180.122 164.476 179.869C163.927 179.598 163.087 179.352 161.957 179.13C160.927 178.919 160.08 178.698 159.417 178.467C158.769 178.219 158.198 177.841 157.702 177.334C157.223 176.81 156.959 176.106 156.911 175.224C156.873 174.525 157.046 173.873 157.43 173.268C157.814 172.663 158.38 172.173 159.128 171.798C159.874 171.407 160.738 171.185 161.72 171.131C163.234 171.048 164.479 171.364 165.452 172.079C166.426 172.793 166.983 173.814 167.122 175.142L164.85 175.266C164.761 174.553 164.439 173.995 163.882 173.592C163.343 173.187 162.632 173.009 161.75 173.057C160.935 173.102 160.295 173.312 159.832 173.688C159.368 174.064 159.152 174.534 159.183 175.1C159.207 175.55 159.369 175.916 159.669 176.2C159.984 176.467 160.362 176.68 160.805 176.839C161.264 176.981 161.89 177.139 162.684 177.313C163.68 177.525 164.493 177.748 165.124 177.98C165.753 178.196 166.298 178.55 166.759 179.043C167.237 179.534 167.507 180.195 167.569 181.027C167.61 181.775 167.438 182.461 167.055 183.083C166.672 183.704 166.107 184.211 165.36 184.602C164.63 184.976 163.773 185.19 162.792 185.243ZM173.104 172.612L173.545 180.675C173.581 181.341 173.749 181.807 174.047 182.075C174.344 182.325 174.843 182.432 175.542 182.394L177.214 182.302L177.319 184.224L175.272 184.336C174.007 184.405 173.043 184.166 172.379 183.618C171.714 183.07 171.346 182.13 171.273 180.799L170.833 172.736L169.06 172.833L168.958 170.961L170.73 170.864L170.542 167.419L172.814 167.295L173.002 170.74L176.572 170.545L176.674 172.417L173.104 172.612ZM192.631 169.417C194.295 169.326 195.67 169.76 196.758 170.719C197.844 171.661 198.439 173.08 198.543 174.978L198.983 183.041L196.737 183.163L196.314 175.425C196.239 174.06 195.841 173.039 195.12 172.36C194.398 171.666 193.446 171.35 192.264 171.415C191.066 171.48 190.129 171.907 189.455 172.695C188.797 173.482 188.507 174.591 188.585 176.022L188.998 183.586L186.727 183.71L185.979 170.031L188.251 169.907L188.357 171.854C188.768 171.13 189.346 170.556 190.091 170.132C190.852 169.706 191.699 169.468 192.631 169.417ZM201.469 175.995C201.392 174.597 201.608 173.358 202.117 172.279C202.625 171.183 203.353 170.317 204.304 169.68C205.27 169.043 206.361 168.692 207.576 168.625C208.774 168.56 209.828 168.761 210.738 169.229C211.649 169.696 212.341 170.31 212.817 171.068L212.681 168.572L214.977 168.446L215.725 182.126L213.428 182.251L213.289 179.705C212.883 180.529 212.246 181.231 211.376 181.813C210.522 182.377 209.504 182.691 208.323 182.756C207.108 182.822 205.993 182.582 204.979 182.037C203.964 181.492 203.144 180.693 202.519 179.643C201.894 178.592 201.544 177.376 201.469 175.995ZM213.053 175.387C212.996 174.355 212.739 173.468 212.281 172.725C211.824 171.982 211.226 171.43 210.489 171.07C209.767 170.692 208.982 170.526 208.133 170.573C207.284 170.619 206.521 170.861 205.844 171.299C205.167 171.736 204.641 172.349 204.267 173.138C203.893 173.926 203.734 174.836 203.79 175.868C203.848 176.916 204.106 177.82 204.564 178.579C205.022 179.322 205.612 179.883 206.334 180.26C207.055 180.622 207.839 180.779 208.688 180.733C209.537 180.686 210.3 180.444 210.977 180.007C211.67 179.552 212.203 178.93 212.577 178.142C212.951 177.337 213.109 176.418 213.053 175.387ZM235.253 167.088C236.318 167.03 237.279 167.203 238.135 167.607C238.991 167.994 239.684 168.615 240.215 169.471C240.746 170.327 241.046 171.387 241.115 172.652L241.556 180.714L239.309 180.837L238.886 173.099C238.811 171.734 238.414 170.713 237.692 170.034C236.986 169.339 236.059 169.022 234.911 169.085C233.73 169.149 232.81 169.583 232.153 170.387C231.495 171.174 231.205 172.283 231.283 173.715L231.695 181.253L229.449 181.376L229.026 173.638C228.951 172.273 228.553 171.251 227.832 170.573C227.126 169.877 226.199 169.561 225.051 169.623C223.869 169.688 222.95 170.122 222.293 170.926C221.635 171.713 221.345 172.822 221.423 174.253L221.835 181.792L219.563 181.916L218.816 168.237L221.088 168.112L221.195 170.084C221.605 169.344 222.175 168.762 222.903 168.339C223.647 167.914 224.477 167.677 225.392 167.627C226.541 167.564 227.57 167.767 228.48 168.234C229.39 168.702 230.089 169.423 230.576 170.398C230.906 169.412 231.498 168.629 232.351 168.048C233.204 167.467 234.171 167.147 235.253 167.088ZM257.361 172.465C257.384 172.898 257.385 173.357 257.361 173.842L246.427 174.439C246.584 175.783 247.1 176.815 247.973 177.535C248.863 178.237 249.907 178.556 251.105 178.49C252.087 178.437 252.89 178.167 253.515 177.683C254.155 177.18 254.587 176.539 254.812 175.759L257.258 175.625C256.964 176.96 256.29 178.073 255.237 178.965C254.184 179.841 252.841 180.323 251.21 180.412C249.912 180.483 248.731 180.256 247.668 179.73C246.621 179.203 245.777 178.422 245.136 177.389C244.495 176.339 244.135 175.107 244.058 173.693C243.981 172.278 244.196 171.023 244.703 169.927C245.211 168.831 245.957 167.972 246.941 167.351C247.941 166.712 249.107 166.356 250.438 166.283C251.736 166.212 252.9 166.433 253.929 166.944C254.959 167.455 255.767 168.195 256.354 169.165C256.957 170.117 257.293 171.217 257.361 172.465ZM254.988 172.119C254.941 171.253 254.709 170.523 254.293 169.929C253.876 169.317 253.325 168.871 252.642 168.592C251.975 168.294 251.242 168.167 250.443 168.211C249.295 168.274 248.333 168.693 247.558 169.47C246.799 170.246 246.397 171.286 246.351 172.591L254.988 172.119ZM280.298 165.779L280.403 167.701L267.423 168.41L267.318 166.488L280.298 165.779ZM280.591 171.146L280.696 173.068L267.716 173.777L267.611 171.855L280.591 171.146ZM292.693 166.153L290.147 166.292L292.234 160.494L293.857 160.406L292.693 166.153ZM296.737 165.932L294.191 166.071L296.278 160.274L297.901 160.185L296.737 165.932ZM309.233 177.017L303.536 171.269L303.866 177.31L301.594 177.434L300.585 158.962L302.857 158.837L303.45 169.696L308.386 163.343L311.556 163.169L305.488 170.336L312.328 176.848L309.233 177.017ZM316.723 171.75C316.941 172.69 317.364 173.401 317.991 173.884C318.635 174.366 319.473 174.579 320.505 174.523C321.886 174.448 322.872 173.851 323.462 172.734C324.068 171.616 324.285 169.776 324.112 167.215C323.803 167.983 323.253 168.606 322.461 169.083C321.668 169.544 320.773 169.801 319.774 169.856C318.659 169.917 317.648 169.747 316.742 169.346C315.851 168.927 315.132 168.29 314.584 167.435C314.037 166.581 313.729 165.529 313.661 164.281C313.564 162.5 314.001 161.041 314.974 159.903C315.946 158.748 317.38 158.119 319.277 158.015C321.607 157.888 323.28 158.556 324.294 160.02C325.326 161.482 325.923 163.711 326.087 166.707C326.201 168.804 326.104 170.545 325.796 171.93C325.505 173.315 324.929 174.39 324.07 175.154C323.227 175.918 322.031 176.342 320.484 176.427C318.786 176.52 317.438 176.134 316.44 175.271C315.441 174.407 314.836 173.272 314.626 171.865L316.723 171.75ZM320.044 167.913C321.159 167.852 322.055 167.461 322.734 166.74C323.411 166.002 323.717 165.042 323.653 163.86C323.585 162.612 323.18 161.624 322.439 160.897C321.699 160.17 320.696 159.841 319.431 159.91C318.266 159.973 317.354 160.39 316.695 161.161C316.053 161.93 315.764 162.914 315.83 164.113C315.896 165.327 316.291 166.282 317.013 166.977C317.735 167.672 318.745 167.984 320.044 167.913ZM331.427 157.276L332.437 175.749L330.165 175.873L329.156 157.401L331.427 157.276ZM342.287 175.436C341.005 175.506 339.824 175.278 338.744 174.753C337.68 174.227 336.82 173.448 336.163 172.416C335.521 171.366 335.162 170.133 335.084 168.719C335.008 167.321 335.24 166.073 335.781 164.975C336.338 163.86 337.125 162.991 338.142 162.368C339.159 161.728 340.316 161.373 341.614 161.302C342.912 161.231 344.102 161.458 345.182 161.983C346.261 162.492 347.13 163.262 347.787 164.294C348.461 165.326 348.836 166.549 348.914 167.963C348.991 169.378 348.743 170.643 348.17 171.76C347.612 172.858 346.817 173.728 345.783 174.369C344.75 175.009 343.585 175.365 342.287 175.436ZM342.177 173.439C342.993 173.394 343.748 173.161 344.443 172.739C345.137 172.317 345.68 171.712 346.071 170.923C346.478 170.133 346.652 169.188 346.592 168.09C346.532 166.992 346.265 166.072 345.79 165.33C345.316 164.588 344.719 164.053 344 163.725C343.28 163.38 342.513 163.23 341.697 163.275C340.865 163.32 340.11 163.554 339.432 163.975C338.77 164.378 338.251 164.974 337.877 165.762C337.503 166.55 337.346 167.494 337.406 168.592C337.467 169.707 337.718 170.636 338.159 171.38C338.617 172.123 339.198 172.667 339.901 173.013C340.603 173.341 341.362 173.484 342.177 173.439ZM353.538 156.068L354.547 174.541L352.276 174.665L351.266 156.192L353.538 156.068ZM359.151 174.439C358.718 174.463 358.344 174.333 358.028 174.05C357.712 173.767 357.542 173.409 357.519 172.976C357.495 172.544 357.625 172.169 357.908 171.853C358.191 171.537 358.549 171.368 358.982 171.344C359.398 171.321 359.755 171.452 360.055 171.736C360.371 172.019 360.54 172.377 360.564 172.81C360.588 173.243 360.458 173.617 360.175 173.933C359.908 174.248 359.567 174.417 359.151 174.439ZM363.059 156.625L365.58 156.487L363.493 162.284L361.896 162.372L363.059 156.625ZM367.103 156.404L369.624 156.266L367.537 162.063L365.915 162.152L367.103 156.404ZM373.889 162.893C373.456 162.917 373.082 162.787 372.766 162.504C372.45 162.221 372.28 161.863 372.257 161.43C372.233 160.997 372.363 160.623 372.646 160.307C372.929 159.991 373.287 159.821 373.72 159.798C374.136 159.775 374.494 159.906 374.793 160.19C375.109 160.473 375.278 160.831 375.302 161.264C375.326 161.696 375.196 162.071 374.913 162.387C374.646 162.702 374.305 162.87 373.889 162.893ZM375.942 170.217L373.513 177.085L371.99 177.168L373.445 170.353L375.942 170.217ZM113.761 256.925C113.684 255.511 113.9 254.264 114.408 253.184C114.916 252.088 115.653 251.222 116.62 250.585C117.603 249.947 118.744 249.592 120.042 249.521C121.723 249.43 123.126 249.762 124.252 250.518C125.395 251.274 126.181 252.366 126.61 253.795L124.163 253.928C123.885 253.109 123.391 252.476 122.683 252.031C121.991 251.585 121.145 251.389 120.147 251.444C118.849 251.515 117.825 252.021 117.075 252.963C116.325 253.889 115.994 255.167 116.083 256.798C116.173 258.446 116.642 259.697 117.49 260.552C118.338 261.407 119.411 261.799 120.709 261.728C121.707 261.674 122.527 261.395 123.167 260.893C123.807 260.391 124.228 259.7 124.431 258.821L126.877 258.687C126.587 260.105 125.916 261.268 124.864 262.177C123.812 263.069 122.461 263.56 120.814 263.65C119.516 263.721 118.343 263.493 117.296 262.966C116.266 262.438 115.439 261.657 114.815 260.623C114.191 259.589 113.84 258.356 113.761 256.925ZM136.126 262.814C134.845 262.884 133.664 262.656 132.584 262.131C131.52 261.605 130.66 260.826 130.003 259.793C129.361 258.743 129.002 257.511 128.924 256.097C128.848 254.699 129.08 253.451 129.621 252.353C130.178 251.238 130.965 250.368 131.982 249.745C132.999 249.106 134.156 248.75 135.454 248.679C136.752 248.608 137.942 248.836 139.022 249.361C140.101 249.869 140.97 250.64 141.627 251.672C142.301 252.704 142.676 253.926 142.754 255.341C142.831 256.756 142.583 258.021 142.01 259.137C141.452 260.236 140.657 261.106 139.623 261.746C138.59 262.387 137.425 262.743 136.126 262.814ZM136.017 260.817C136.833 260.772 137.588 260.539 138.283 260.117C138.977 259.695 139.52 259.09 139.911 258.301C140.318 257.51 140.492 256.566 140.432 255.468C140.372 254.37 140.105 253.449 139.63 252.708C139.156 251.966 138.559 251.431 137.84 251.103C137.12 250.758 136.353 250.608 135.537 250.653C134.705 250.698 133.95 250.931 133.272 251.352C132.61 251.756 132.091 252.352 131.717 253.14C131.343 253.928 131.186 254.871 131.246 255.97C131.307 257.085 131.558 258.014 131.999 258.758C132.457 259.501 133.037 260.045 133.741 260.39C134.443 260.719 135.202 260.861 136.017 260.817ZM152.019 247.749C153.684 247.658 155.059 248.092 156.147 249.051C157.233 249.993 157.828 251.413 157.932 253.31L158.372 261.373L156.126 261.496L155.703 253.757C155.628 252.393 155.23 251.371 154.509 250.693C153.786 249.998 152.835 249.683 151.653 249.747C150.455 249.813 149.518 250.239 148.844 251.027C148.186 251.814 147.896 252.924 147.974 254.355L148.387 261.919L146.116 262.043L145.368 248.363L147.64 248.239L147.746 250.186C148.157 249.462 148.735 248.888 149.48 248.464C150.241 248.038 151.088 247.8 152.019 247.749ZM166.938 261.13C165.89 261.188 164.94 261.064 164.089 260.76C163.236 260.439 162.552 259.976 162.035 259.37C161.517 258.747 161.21 258.021 161.114 257.192L163.461 257.064C163.565 257.743 163.911 258.283 164.501 258.685C165.107 259.085 165.876 259.26 166.808 259.209C167.673 259.162 168.345 258.934 168.824 258.523C169.302 258.113 169.525 257.617 169.493 257.035C169.461 256.436 169.17 256.009 168.622 255.755C168.073 255.485 167.234 255.239 166.103 255.017C165.073 254.806 164.227 254.585 163.563 254.354C162.915 254.106 162.344 253.728 161.849 253.221C161.37 252.696 161.106 251.993 161.058 251.111C161.019 250.412 161.192 249.76 161.577 249.155C161.961 248.55 162.527 248.06 163.274 247.685C164.02 247.294 164.885 247.071 165.866 247.018C167.381 246.935 168.625 247.251 169.599 247.965C170.572 248.68 171.129 249.701 171.268 251.029L168.997 251.153C168.908 250.44 168.585 249.882 168.029 249.478C167.489 249.074 166.779 248.896 165.897 248.944C165.081 248.988 164.442 249.199 163.978 249.575C163.515 249.95 163.298 250.421 163.329 250.987C163.354 251.436 163.516 251.803 163.815 252.087C164.13 252.354 164.509 252.567 164.951 252.726C165.41 252.868 166.036 253.026 166.83 253.199C167.827 253.412 168.64 253.635 169.27 253.867C169.9 254.083 170.445 254.437 170.906 254.93C171.383 255.421 171.653 256.082 171.715 256.913C171.756 257.662 171.585 258.348 171.201 258.969C170.818 259.591 170.253 260.098 169.507 260.489C168.776 260.863 167.92 261.077 166.938 261.13ZM181.103 260.356C179.822 260.426 178.641 260.199 177.561 259.674C176.497 259.147 175.637 258.368 174.979 257.336C174.338 256.286 173.978 255.054 173.901 253.639C173.825 252.241 174.057 250.993 174.598 249.896C175.155 248.78 175.942 247.911 176.959 247.288C177.976 246.648 179.133 246.293 180.431 246.222C181.729 246.151 182.918 246.378 183.999 246.903C185.078 247.412 185.946 248.182 186.604 249.215C187.278 250.246 187.653 251.469 187.731 252.884C187.808 254.298 187.56 255.564 186.987 256.68C186.429 257.779 185.634 258.648 184.6 259.289C183.567 259.93 182.401 260.285 181.103 260.356ZM180.994 258.359C181.81 258.315 182.565 258.081 183.259 257.66C183.954 257.238 184.497 256.632 184.888 255.843C185.295 255.053 185.469 254.109 185.409 253.01C185.349 251.912 185.082 250.992 184.607 250.25C184.133 249.508 183.536 248.973 182.817 248.645C182.097 248.301 181.329 248.151 180.514 248.195C179.682 248.241 178.927 248.474 178.249 248.895C177.586 249.298 177.068 249.894 176.694 250.682C176.32 251.471 176.163 252.414 176.223 253.512C176.284 254.627 176.535 255.557 176.976 256.3C177.434 257.043 178.014 257.587 178.718 257.933C179.42 258.262 180.179 258.404 180.994 258.359ZM192.355 240.989L193.364 259.461L191.092 259.585L190.083 241.113L192.355 240.989ZM209.315 251.203C209.338 251.636 209.338 252.095 209.315 252.581L198.381 253.178C198.538 254.521 199.053 255.553 199.927 256.273C200.817 256.976 201.861 257.294 203.059 257.229C204.041 257.175 204.844 256.906 205.468 256.421C206.109 255.919 206.541 255.278 206.765 254.497L209.212 254.364C208.918 255.699 208.244 256.812 207.191 257.704C206.137 258.579 204.795 259.062 203.164 259.151C201.866 259.222 200.685 258.994 199.621 258.468C198.574 257.941 197.731 257.161 197.09 256.128C196.448 255.078 196.089 253.846 196.012 252.431C195.934 251.017 196.15 249.761 196.657 248.665C197.165 247.569 197.911 246.711 198.895 246.089C199.895 245.45 201.061 245.095 202.392 245.022C203.69 244.951 204.854 245.171 205.883 245.682C206.913 246.194 207.721 246.934 208.308 247.903C208.911 248.855 209.246 249.955 209.315 251.203ZM206.942 250.857C206.895 249.992 206.663 249.262 206.247 248.667C205.829 248.056 205.279 247.61 204.596 247.33C203.929 247.033 203.196 246.906 202.397 246.95C201.249 247.012 200.287 247.432 199.512 248.209C198.753 248.985 198.351 250.025 198.305 251.329L206.942 250.857ZM213.447 258.514C213.015 258.538 212.64 258.408 212.325 258.125C212.009 257.841 211.839 257.483 211.815 257.051C211.792 256.618 211.921 256.244 212.205 255.928C212.488 255.612 212.846 255.442 213.278 255.419C213.694 255.396 214.052 255.526 214.351 255.811C214.667 256.094 214.837 256.452 214.861 256.884C214.884 257.317 214.755 257.691 214.471 258.007C214.205 258.322 213.864 258.491 213.447 258.514ZM219.219 239.521L220.228 257.993L217.957 258.117L216.947 239.645L219.219 239.521ZM230.078 257.68C228.797 257.75 227.616 257.523 226.536 256.998C225.472 256.471 224.612 255.692 223.954 254.66C223.313 253.61 222.953 252.378 222.876 250.963C222.8 249.565 223.032 248.317 223.573 247.22C224.129 246.104 224.916 245.235 225.934 244.612C226.951 243.972 228.108 243.617 229.406 243.546C230.704 243.475 231.893 243.702 232.973 244.227C234.053 244.736 234.921 245.506 235.578 246.539C236.252 247.57 236.628 248.793 236.705 250.208C236.783 251.622 236.535 252.888 235.961 254.004C235.404 255.103 234.608 255.972 233.575 256.613C232.542 257.254 231.376 257.609 230.078 257.68ZM229.969 255.683C230.784 255.639 231.54 255.406 232.234 254.984C232.929 254.562 233.472 253.956 233.863 253.167C234.27 252.377 234.444 251.433 234.384 250.334C234.324 249.236 234.057 248.316 233.582 247.574C233.107 246.832 232.511 246.297 231.792 245.969C231.072 245.625 230.304 245.475 229.489 245.519C228.657 245.565 227.902 245.798 227.224 246.219C226.561 246.622 226.043 247.218 225.669 248.006C225.295 248.795 225.137 249.738 225.197 250.836C225.258 251.951 225.509 252.881 225.951 253.624C226.409 254.367 226.989 254.911 227.692 255.257C228.395 255.586 229.154 255.728 229.969 255.683ZM244.949 242.697C246.131 242.632 247.176 242.834 248.087 243.301C249.014 243.768 249.715 244.381 250.19 245.139L250.054 242.643L252.35 242.518L253.114 256.497C253.182 257.745 252.976 258.866 252.497 259.86C252.018 260.871 251.294 261.679 250.326 262.283C249.374 262.885 248.24 263.223 246.926 263.295C245.128 263.393 243.607 263.05 242.363 262.267C241.118 261.484 240.348 260.366 240.051 258.913L242.298 258.79C242.593 259.609 243.145 260.246 243.955 260.703C244.765 261.176 245.72 261.382 246.818 261.322C248.066 261.254 249.06 260.808 249.799 259.983C250.555 259.157 250.895 258.037 250.818 256.622L250.661 253.752C250.255 254.575 249.626 255.277 248.773 255.858C247.92 256.438 246.903 256.761 245.721 256.826C244.506 256.892 243.383 256.653 242.352 256.108C241.337 255.563 240.518 254.765 239.893 253.714C239.268 252.663 238.917 251.447 238.842 250.066C238.766 248.668 238.982 247.429 239.49 246.35C239.998 245.254 240.727 244.388 241.677 243.752C242.643 243.115 243.734 242.763 244.949 242.697ZM250.426 249.458C250.37 248.426 250.113 247.539 249.655 246.796C249.197 246.053 248.599 245.502 247.862 245.141C247.14 244.764 246.355 244.598 245.506 244.644C244.657 244.691 243.894 244.933 243.217 245.37C242.54 245.808 242.014 246.421 241.64 247.209C241.266 247.997 241.107 248.907 241.164 249.939C241.221 250.987 241.479 251.891 241.938 252.651C242.395 253.394 242.985 253.954 243.707 254.332C244.428 254.693 245.213 254.85 246.061 254.804C246.91 254.758 247.673 254.516 248.35 254.078C249.043 253.623 249.576 253.001 249.951 252.213C250.324 251.408 250.482 250.49 250.426 249.458ZM263.032 260.311C261.348 258.834 259.992 256.914 258.961 254.55C257.947 252.185 257.364 249.605 257.211 246.809C257.055 243.946 257.375 241.25 258.171 238.719C258.983 236.171 260.219 234.042 261.878 232.333L264.25 232.203L264.262 232.428C262.494 234.277 261.202 236.459 260.388 238.974C259.59 241.471 259.263 244.043 259.408 246.689C259.549 249.268 260.124 251.707 261.135 254.005C262.162 256.303 263.58 258.287 265.391 259.957L265.403 260.182L263.032 260.311ZM271.195 238.759L271.288 240.456L265.816 237.901L265.708 235.929L271.195 238.759ZM280.712 240.718C281.744 240.661 282.688 240.835 283.545 241.239C284.401 241.626 285.086 242.248 285.6 243.104C286.131 243.96 286.431 245.02 286.5 246.285L286.94 254.348L284.694 254.471L284.271 246.732C284.196 245.368 283.798 244.346 283.077 243.668C282.354 242.973 281.403 242.658 280.221 242.722C279.023 242.788 278.086 243.215 277.412 244.003C276.754 244.79 276.464 245.899 276.542 247.33L276.955 254.894L274.683 255.018L273.674 236.545L275.946 236.421L276.314 243.161C276.725 242.438 277.311 241.863 278.073 241.438C278.851 241.011 279.73 240.771 280.712 240.718ZM302.73 246.099C302.754 246.532 302.754 246.991 302.73 247.476L291.796 248.074C291.953 249.417 292.469 250.449 293.343 251.169C294.232 251.872 295.276 252.19 296.474 252.125C297.456 252.071 298.259 251.802 298.884 251.317C299.524 250.815 299.956 250.173 300.181 249.393L302.627 249.26C302.333 250.594 301.659 251.708 300.606 252.6C299.553 253.475 298.21 253.958 296.579 254.047C295.281 254.118 294.1 253.89 293.037 253.364C291.99 252.837 291.146 252.057 290.505 251.024C289.864 249.974 289.504 248.742 289.427 247.327C289.35 245.912 289.565 244.657 290.073 243.561C290.58 242.465 291.326 241.606 292.31 240.985C293.31 240.346 294.476 239.991 295.807 239.918C297.105 239.847 298.269 240.067 299.299 240.578C300.328 241.09 301.136 241.83 301.723 242.799C302.326 243.751 302.662 244.851 302.73 246.099ZM300.357 245.753C300.31 244.888 300.078 244.158 299.662 243.563C299.245 242.951 298.695 242.506 298.012 242.226C297.344 241.929 296.611 241.802 295.813 241.845C294.664 241.908 293.702 242.328 292.927 243.105C292.168 243.881 291.766 244.921 291.72 246.225L300.357 245.753ZM307.393 234.703L308.402 253.175L306.131 253.3L305.121 234.827L307.393 234.703ZM313.536 234.367L314.546 252.84L312.274 252.964L311.265 234.491L313.536 234.367ZM324.395 252.527C323.114 252.597 321.933 252.369 320.853 251.844C319.789 251.318 318.929 250.539 318.272 249.506C317.63 248.457 317.271 247.224 317.193 245.81C317.117 244.412 317.349 243.164 317.89 242.066C318.447 240.951 319.234 240.082 320.251 239.459C321.268 238.819 322.425 238.463 323.723 238.393C325.021 238.322 326.211 238.549 327.291 239.074C328.37 239.582 329.238 240.353 329.896 241.385C330.57 242.417 330.945 243.64 331.023 245.054C331.1 246.469 330.852 247.734 330.279 248.85C329.721 249.949 328.926 250.819 327.892 251.46C326.859 252.1 325.694 252.456 324.395 252.527ZM324.286 250.53C325.102 250.485 325.857 250.252 326.552 249.83C327.246 249.408 327.789 248.803 328.18 248.014C328.587 247.224 328.761 246.279 328.701 245.181C328.641 244.083 328.374 243.163 327.899 242.421C327.425 241.679 326.828 241.144 326.109 240.816C325.389 240.471 324.622 240.321 323.806 240.366C322.974 240.411 322.219 240.645 321.541 241.066C320.879 241.469 320.36 242.065 319.986 242.853C319.612 243.641 319.455 244.585 319.515 245.683C319.576 246.798 319.827 247.727 320.268 248.471C320.726 249.214 321.306 249.758 322.01 250.103C322.712 250.432 323.471 250.574 324.286 250.53ZM358.515 236.717L354.994 250.63L352.647 250.758L348.759 240.079L346.057 251.118L343.711 251.246L338.67 237.801L340.991 237.674L344.764 248.985L347.531 237.317L349.853 237.19L353.802 248.517L356.268 236.84L358.515 236.717ZM367.495 250.172C366.214 250.242 365.033 250.014 363.953 249.489C362.889 248.963 362.029 248.184 361.371 247.152C360.73 246.102 360.37 244.869 360.293 243.455C360.217 242.057 360.449 240.809 360.99 239.711C361.546 238.596 362.334 237.727 363.351 237.104C364.368 236.464 365.525 236.108 366.823 236.038C368.121 235.967 369.31 236.194 370.391 236.719C371.47 237.227 372.338 237.998 372.996 239.03C373.67 240.062 374.045 241.285 374.122 242.699C374.2 244.114 373.952 245.379 373.378 246.496C372.821 247.594 372.025 248.464 370.992 249.105C369.959 249.745 368.793 250.101 367.495 250.172ZM367.386 248.175C368.202 248.13 368.957 247.897 369.651 247.475C370.346 247.053 370.889 246.448 371.28 245.659C371.687 244.869 371.861 243.924 371.801 242.826C371.741 241.728 371.474 240.808 370.999 240.066C370.525 239.324 369.928 238.789 369.209 238.461C368.489 238.116 367.721 237.966 366.906 238.011C366.074 238.056 365.319 238.29 364.641 238.711C363.978 239.114 363.46 239.71 363.086 240.498C362.712 241.286 362.555 242.23 362.615 243.328C362.676 244.443 362.927 245.372 363.368 246.116C363.826 246.859 364.406 247.403 365.109 247.749C365.812 248.077 366.571 248.219 367.386 248.175ZM379.13 237.819C379.486 237.015 380.019 236.376 380.728 235.904C381.453 235.43 382.348 235.164 383.413 235.106L383.541 237.453L382.942 237.485C380.396 237.624 379.198 239.075 379.349 241.838L379.756 249.277L377.484 249.401L376.737 235.721L379.008 235.597L379.13 237.819ZM388.059 230.295L389.068 248.768L386.797 248.892L385.787 230.42L388.059 230.295ZM391.715 241.713C391.638 240.315 391.854 239.076 392.363 237.997C392.87 236.901 393.599 236.035 394.549 235.399C395.516 234.762 396.615 234.41 397.847 234.342C398.912 234.284 399.915 234.48 400.858 234.929C401.8 235.362 402.534 235.964 403.06 236.737L402.664 229.497L404.961 229.372L405.97 247.844L403.674 247.97L403.533 245.399C403.128 246.239 402.5 246.949 401.647 247.53C400.793 248.094 399.775 248.408 398.594 248.473C397.379 248.539 396.256 248.3 395.224 247.756C394.21 247.21 393.39 246.412 392.765 245.361C392.14 244.31 391.79 243.094 391.715 241.713ZM403.299 241.105C403.242 240.073 402.985 239.186 402.527 238.443C402.069 237.7 401.472 237.149 400.734 236.789C400.013 236.411 399.227 236.245 398.379 236.291C397.53 236.338 396.767 236.58 396.09 237.017C395.413 237.455 394.887 238.068 394.513 238.856C394.139 239.644 393.98 240.554 394.036 241.586C394.093 242.635 394.351 243.539 394.81 244.298C395.268 245.041 395.858 245.601 396.58 245.979C397.3 246.34 398.085 246.498 398.934 246.451C399.783 246.405 400.545 246.163 401.223 245.725C401.915 245.27 402.449 244.648 402.823 243.86C403.197 243.055 403.355 242.137 403.299 241.105ZM411.984 244.361L409.555 251.229L408.032 251.312L409.487 244.498L411.984 244.361ZM421.717 231.035C421.285 231.059 420.91 230.929 420.594 230.646C420.278 230.363 420.109 230.005 420.085 229.572C420.061 229.139 420.191 228.765 420.474 228.449C420.758 228.133 421.115 227.963 421.548 227.94C421.964 227.917 422.322 228.048 422.621 228.332C422.937 228.615 423.107 228.973 423.13 229.406C423.154 229.838 423.024 230.213 422.741 230.529C422.475 230.844 422.133 231.012 421.717 231.035ZM422.937 233.197L423.684 246.876L421.413 247.001L420.665 233.321L422.937 233.197ZM443.245 231.837C444.311 231.779 445.271 231.952 446.128 232.355C446.984 232.743 447.677 233.364 448.208 234.22C448.739 235.075 449.039 236.136 449.108 237.4L449.548 245.463L447.302 245.586L446.879 237.848C446.804 236.483 446.406 235.462 445.685 234.783C444.979 234.087 444.052 233.771 442.904 233.833C441.722 233.898 440.803 234.332 440.146 235.136C439.488 235.923 439.198 237.032 439.276 238.463L439.688 246.002L437.441 246.125L437.018 238.386C436.944 237.022 436.546 236 435.825 235.322C435.119 234.626 434.192 234.31 433.044 234.372C431.862 234.437 430.943 234.871 430.286 235.675C429.627 236.462 429.338 237.571 429.416 239.002L429.828 246.541L427.556 246.665L426.809 232.985L429.08 232.861L429.188 234.833C429.598 234.093 430.167 233.511 430.895 233.088C431.64 232.663 432.47 232.426 433.385 232.376C434.533 232.313 435.563 232.515 436.473 232.983C437.383 233.451 438.082 234.172 438.569 235.147C438.899 234.161 439.491 233.377 440.343 232.797C441.196 232.216 442.164 231.896 443.245 231.837ZM128.031 296.305C128.075 297.104 127.917 297.881 127.557 298.635C127.197 299.372 126.639 300.003 125.883 300.529C125.144 301.053 124.236 301.378 123.157 301.504L123.268 303.526L121.92 303.6L121.809 301.578C120.288 301.527 119.03 301.112 118.036 300.332C117.041 299.535 116.5 298.488 116.412 297.191L118.833 297.058C118.938 297.754 119.229 298.347 119.707 298.838C120.201 299.329 120.868 299.618 121.707 299.705L121.366 293.465C120.236 293.243 119.321 293.001 118.622 292.738C117.924 292.476 117.316 292.042 116.799 291.436C116.282 290.83 115.994 289.994 115.936 288.929C115.862 287.581 116.267 286.441 117.151 285.508C118.051 284.574 119.281 284.014 120.84 283.829L120.727 281.757L122.075 281.683L122.188 283.755C123.609 283.795 124.774 284.19 125.683 284.941C126.591 285.676 127.146 286.673 127.348 287.93L124.927 288.062C124.812 287.484 124.525 286.974 124.067 286.532C123.608 286.073 123.017 285.788 122.293 285.678L122.626 291.768C123.739 291.991 124.646 292.234 125.344 292.496C126.059 292.741 126.666 293.167 127.167 293.774C127.684 294.38 127.972 295.224 128.031 296.305ZM118.25 288.678C118.295 289.493 118.57 290.104 119.077 290.51C119.583 290.917 120.31 291.236 121.257 291.468L120.942 285.701C120.081 285.832 119.406 286.152 118.916 286.663C118.426 287.157 118.204 287.829 118.25 288.678ZM123.057 299.657C123.95 299.508 124.631 299.145 125.1 298.569C125.586 297.991 125.808 297.32 125.766 296.554C125.722 295.739 125.438 295.128 124.915 294.723C124.391 294.301 123.665 293.982 122.735 293.765L123.057 299.657ZM132.728 290.591C134.408 290.182 135.209 289.262 135.131 287.83C135.097 287.198 134.954 286.121 134.704 284.599C134.449 282.977 134.301 281.8 134.261 281.068C134.195 279.87 134.478 278.936 135.109 278.267C135.757 277.598 136.647 277.232 137.778 277.17L139.226 277.091L139.334 279.063L138.311 279.119C137.661 279.154 137.187 279.33 136.887 279.647C136.586 279.948 136.454 280.43 136.491 281.096C136.517 281.579 136.583 282.176 136.689 282.888C136.793 283.583 136.861 284.055 136.891 284.304C137.145 285.893 137.292 287.053 137.332 287.785C137.38 288.667 137.196 289.42 136.779 290.044C136.378 290.65 135.726 291.078 134.821 291.327L134.824 291.377C135.75 291.527 136.446 291.89 136.912 292.465C137.394 293.04 137.659 293.768 137.707 294.65C137.747 295.382 137.727 296.552 137.648 298.158C137.645 298.409 137.63 298.894 137.603 299.613C137.574 300.316 137.573 300.908 137.6 301.391C137.636 302.057 137.82 302.522 138.152 302.788C138.484 303.07 138.975 303.193 139.624 303.158L140.647 303.102L140.755 305.074L139.307 305.153C138.176 305.215 137.251 304.948 136.535 304.353C135.834 303.757 135.452 302.86 135.386 301.662C135.346 300.93 135.365 299.744 135.442 298.104C135.525 296.564 135.549 295.477 135.514 294.845C135.436 293.414 134.54 292.586 132.825 292.363L132.728 290.591ZM150.022 285.915C151.686 285.824 153.062 286.258 154.149 287.217C155.235 288.159 155.83 289.579 155.934 291.476L156.374 299.539L154.128 299.662L153.705 291.923C153.63 290.558 153.232 289.537 152.511 288.859C151.789 288.164 150.837 287.848 149.655 287.913C148.457 287.979 147.52 288.405 146.846 289.193C146.188 289.98 145.898 291.089 145.976 292.521L146.389 300.084L144.118 300.208L143.37 286.529L145.642 286.405L145.748 288.352C146.159 287.628 146.737 287.054 147.482 286.63C148.243 286.204 149.09 285.966 150.022 285.915ZM158.86 292.493C158.783 291.095 159 289.856 159.508 288.777C160.016 287.681 160.745 286.815 161.695 286.179C162.661 285.542 163.752 285.19 164.967 285.124C166.165 285.058 167.219 285.259 168.13 285.727C169.04 286.195 169.733 286.808 170.208 287.566L170.072 285.07L172.368 284.944L173.116 298.624L170.819 298.75L170.68 296.203C170.274 297.027 169.637 297.729 168.767 298.311C167.913 298.875 166.895 299.189 165.714 299.254C164.499 299.32 163.384 299.081 162.37 298.535C161.355 297.99 160.535 297.192 159.91 296.141C159.286 295.09 158.935 293.874 158.86 292.493ZM170.444 291.885C170.388 290.853 170.13 289.966 169.673 289.223C169.215 288.48 168.617 287.929 167.88 287.568C167.158 287.19 166.373 287.025 165.524 287.071C164.675 287.117 163.912 287.359 163.235 287.797C162.558 288.235 162.032 288.847 161.658 289.636C161.284 290.424 161.125 291.334 161.181 292.366C161.239 293.414 161.497 294.318 161.955 295.078C162.413 295.82 163.003 296.381 163.725 296.759C164.446 297.12 165.23 297.277 166.079 297.231C166.928 297.184 167.691 296.943 168.368 296.505C169.061 296.05 169.594 295.428 169.969 294.64C170.342 293.835 170.5 292.917 170.444 291.885ZM192.644 283.586C193.709 283.528 194.67 283.701 195.526 284.105C196.382 284.492 197.075 285.113 197.606 285.969C198.137 286.825 198.437 287.885 198.506 289.15L198.947 297.213L196.7 297.335L196.277 289.597C196.203 288.232 195.805 287.211 195.083 286.533C194.377 285.837 193.45 285.52 192.302 285.583C191.121 285.647 190.201 286.082 189.544 286.885C188.886 287.672 188.596 288.781 188.674 290.213L189.086 297.751L186.84 297.874L186.417 290.136C186.342 288.771 185.944 287.75 185.223 287.071C184.517 286.375 183.59 286.059 182.442 286.122C181.26 286.186 180.341 286.62 179.684 287.424C179.026 288.211 178.736 289.32 178.814 290.751L179.226 298.29L176.954 298.414L176.207 284.735L178.479 284.611L178.586 286.583C178.997 285.842 179.566 285.261 180.294 284.837C181.038 284.412 181.868 284.175 182.783 284.125C183.932 284.062 184.961 284.265 185.871 284.732C186.781 285.2 187.48 285.921 187.967 286.896C188.297 285.91 188.889 285.127 189.742 284.546C190.595 283.965 191.562 283.645 192.644 283.586ZM214.752 288.963C214.776 289.396 214.776 289.855 214.752 290.34L203.818 290.938C203.975 292.281 204.491 293.313 205.364 294.033C206.254 294.735 207.298 295.054 208.496 294.988C209.478 294.935 210.281 294.665 210.906 294.181C211.546 293.678 211.978 293.037 212.203 292.257L214.649 292.123C214.355 293.458 213.681 294.571 212.628 295.464C211.575 296.339 210.232 296.821 208.601 296.91C207.303 296.981 206.122 296.754 205.059 296.228C204.012 295.701 203.168 294.921 202.527 293.887C201.886 292.837 201.526 291.605 201.449 290.191C201.372 288.776 201.587 287.521 202.095 286.425C202.602 285.329 203.348 284.47 204.332 283.849C205.332 283.21 206.498 282.854 207.829 282.782C209.127 282.711 210.291 282.931 211.321 283.442C212.35 283.953 213.158 284.694 213.745 285.663C214.348 286.615 214.684 287.715 214.752 288.963ZM212.379 288.617C212.332 287.752 212.1 287.022 211.684 286.427C211.267 285.815 210.716 285.37 210.034 285.09C209.366 284.792 208.633 284.665 207.834 284.709C206.686 284.772 205.724 285.192 204.949 285.968C204.19 286.744 203.788 287.784 203.742 289.089L212.379 288.617ZM224.681 287.344C223.001 287.753 222.2 288.673 222.278 290.104C222.313 290.737 222.455 291.814 222.705 293.336C222.961 294.957 223.109 296.134 223.149 296.867C223.214 298.065 222.923 298.999 222.275 299.669C221.644 300.337 220.763 300.703 219.631 300.764L218.183 300.844L218.075 298.872L219.099 298.816C219.748 298.78 220.222 298.604 220.522 298.287C220.823 297.987 220.955 297.504 220.919 296.838C220.892 296.356 220.827 295.767 220.722 295.071C220.616 294.359 220.548 293.879 220.518 293.63C220.264 292.042 220.117 290.882 220.077 290.149C220.029 289.267 220.205 288.515 220.605 287.892C221.022 287.268 221.682 286.832 222.587 286.582L222.584 286.532C221.658 286.382 220.954 286.029 220.473 285.471C220.007 284.895 219.751 284.167 219.702 283.285C219.662 282.552 219.682 281.383 219.761 279.776C219.764 279.526 219.78 279.049 219.808 278.346C219.836 277.627 219.836 277.026 219.81 276.544C219.773 275.878 219.589 275.412 219.258 275.147C218.925 274.864 218.434 274.741 217.785 274.776L216.762 274.832L216.654 272.86L218.102 272.781C219.234 272.719 220.15 272.986 220.85 273.582C221.567 274.178 221.958 275.074 222.023 276.272C222.063 277.005 222.045 278.191 221.967 279.831C221.885 281.371 221.86 282.457 221.895 283.09C221.973 284.521 222.87 285.348 224.584 285.572L224.681 287.344ZM232.607 278.924L232.699 280.621L227.227 278.066L227.119 276.094L232.607 278.924ZM235.624 299.866L235.612 299.641C237.23 297.783 238.416 295.657 239.169 293.262C239.94 290.867 240.255 288.379 240.114 285.8C239.969 283.154 239.356 280.633 238.273 278.239C237.207 275.827 235.694 273.798 233.735 272.152L233.722 271.928L236.094 271.798C237.929 273.317 239.381 275.299 240.45 277.744C241.534 280.172 242.154 282.817 242.31 285.68C242.463 288.475 242.156 291.104 241.389 293.567C240.639 296.028 239.508 298.084 237.996 299.736L235.624 299.866ZM248.176 283.932C247.744 283.956 247.369 283.826 247.053 283.543C246.738 283.26 246.568 282.902 246.544 282.469C246.52 282.036 246.65 281.662 246.933 281.346C247.217 281.03 247.575 280.86 248.007 280.837C248.423 280.814 248.781 280.945 249.08 281.229C249.396 281.512 249.566 281.87 249.59 282.302C249.613 282.735 249.483 283.109 249.2 283.425C248.934 283.74 248.592 283.909 248.176 283.932ZM250.229 291.256L247.8 298.124L246.277 298.207L247.733 291.392L250.229 291.256Z" fill="black"/>
<line x1="436.814" y1="54.1693" x2="407.224" y2="55.7861" stroke="black" stroke-width="4"/>
<path d="M533.821 20.9352L493.469 2.52982L2.63269 29.3487M2.63269 29.3487L27.1064 48.6216M2.63269 29.3487L20.0611 348.322L44.6879 370.397" stroke="black" stroke-width="5"/>
</svg>
