<svg width="365" height="433" viewBox="0 0 365 433" fill="none" xmlns="http://www.w3.org/2000/svg">
<path d="M292.487 38.0157L18.1091 365.509M292.487 38.0157L318.024 7.12846C321.541 2.87352 327.842 2.27439 332.099 5.79002L356.924 26.2934C361.036 29.6892 361.759 35.7138 358.569 39.9867L334.375 72.3891M292.487 38.0157L304.123 47.5639M18.1091 365.509C28.5526 363.41 30.9598 366.655 30.8896 378M18.1091 365.509L8.45921 410.043M60.0553 406.506L334.375 72.3891M60.0553 406.506C61.2854 392.262 58.1519 389.212 45.4724 392.253M60.0553 406.506L18.9684 421.773M334.375 72.3891L319.249 59.9765M304.123 47.5639L30.8896 378M304.123 47.5639L319.249 59.9765M30.8896 378C45.1053 377.613 47.6076 381.219 45.4724 392.253M45.4724 392.253L319.249 59.9765M8.45921 410.043C7.02032 416.683 6.2136 420.406 4.77471 427.046C10.3177 424.987 13.4254 423.832 18.9684 421.773M8.45921 410.043C16.714 409.719 18.9554 412.358 18.9684 421.773" stroke="black" stroke-width="7"/>
</svg>
